<?xml version="1.0" encoding="UTF-8" standalone="no"?>
<!DOCTYPE svg PUBLIC "-//W3C//DTD SVG 1.1//EN"
 "http://www.w3.org/Graphics/SVG/1.1/DTD/svg11.dtd">
<!-- Generated by graphviz version 2.40.1 (20161225.0304)
 -->
<!-- Title: dependencies Pages: 1 -->
<svg width="504pt" height="211pt"
 viewBox="0.00 0.00 504.00 211.00" xmlns="http://www.w3.org/2000/svg" xmlns:xlink="http://www.w3.org/1999/xlink">
<g id="graph0" class="graph" transform="scale(1 1) rotate(0) translate(4 207)">
<title>dependencies</title>
<polygon fill="#ffffff" stroke="transparent" points="-4,4 -4,-207 500,-207 500,4 -4,4"/>
<text text-anchor="start" x="227.0091" y="-42.4" font-family="sans-serif" font-weight="bold" font-size="14.00" fill="#000000">Legend</text>
<polygon fill="#ffffb3" stroke="transparent" points="14,-10 14,-30 34,-30 34,-10 14,-10"/>
<text text-anchor="start" x="37.629" y="-15.4" font-family="sans-serif" font-size="14.00" fill="#000000"> &#160;Declarations</text>
<polygon fill="#8dd3c7" stroke="transparent" points="127,-10 127,-30 147,-30 147,-10 127,-10"/>
<text text-anchor="start" x="150.7251" y="-15.4" font-family="sans-serif" font-size="14.00" fill="#000000"> &#160;Module</text>
<polygon fill="#80b1d3" stroke="transparent" points="213,-10 213,-30 233,-30 233,-10 213,-10"/>
<text text-anchor="start" x="236.7812" y="-15.4" font-family="sans-serif" font-size="14.00" fill="#000000"> &#160;Bootstrap</text>
<polygon fill="#fdb462" stroke="transparent" points="310,-10 310,-30 330,-30 330,-10 310,-10"/>
<text text-anchor="start" x="333.6732" y="-15.4" font-family="sans-serif" font-size="14.00" fill="#000000"> &#160;Providers</text>
<polygon fill="#fb8072" stroke="transparent" points="406,-10 406,-30 426,-30 426,-10 406,-10"/>
<text text-anchor="start" x="429.7258" y="-15.4" font-family="sans-serif" font-size="14.00" fill="#000000"> &#160;Exports</text>
<g id="clust1" class="cluster">
<title>cluster_TabsPageModule</title>
<polygon fill="none" stroke="#000000" stroke-dasharray="1,5" points="26.5,-70 26.5,-195 469.5,-195 469.5,-70 26.5,-70"/>
</g>
<g id="clust2" class="cluster">
<title>cluster_TabsPageModule_declarations</title>
<polygon fill="none" stroke="#000000" points="375.5,-78 375.5,-130 461.5,-130 461.5,-78 375.5,-78"/>
</g>
<g id="clust4" class="cluster">
<title>cluster_TabsPageModule_imports</title>
<polygon fill="none" stroke="#000000" points="34.5,-78 34.5,-130 367.5,-130 367.5,-78 34.5,-78"/>
</g>
<!-- TabsPage -->
<g id="node1" class="node">
<title>TabsPage</title>
<polygon fill="#ffffb3" stroke="#000000" points="453.9249,-122 383.0751,-122 383.0751,-86 453.9249,-86 453.9249,-122"/>
<text text-anchor="middle" x="418.5" y="-99.8" font-family="Times,serif" font-size="14.00" fill="#000000">TabsPage</text>
</g>
<!-- TabsPageModule -->
<g id="node2" class="node">
<title>TabsPageModule</title>
<polygon fill="#8dd3c7" stroke="#000000" points="346.4734,-187 343.4734,-191 322.4734,-191 319.4734,-187 232.5266,-187 232.5266,-151 346.4734,-151 346.4734,-187"/>
<text text-anchor="middle" x="289.5" y="-164.8" font-family="Times,serif" font-size="14.00" fill="#000000">TabsPageModule</text>
</g>
<!-- TabsPage&#45;&gt;TabsPageModule -->
<g id="edge1" class="edge">
<title>TabsPage&#45;&gt;TabsPageModule</title>
<path fill="none" stroke="#000000" d="M418.5,-122.1061C418.5,-141.3391 418.5,-169 418.5,-169 418.5,-169 356.8325,-169 356.8325,-169"/>
<polygon fill="#000000" stroke="#000000" points="356.8326,-165.5001 346.8325,-169 356.8325,-172.5001 356.8326,-165.5001"/>
</g>
<!-- CustomModalModule -->
<g id="node3" class="node">
<title>CustomModalModule</title>
<polygon fill="#8dd3c7" stroke="#000000" points="359.1624,-122 356.1624,-126 335.1624,-126 332.1624,-122 219.8376,-122 219.8376,-86 359.1624,-86 359.1624,-122"/>
<text text-anchor="middle" x="289.5" y="-99.8" font-family="Times,serif" font-size="14.00" fill="#000000">CustomModalModule</text>
</g>
<!-- CustomModalModule&#45;&gt;TabsPageModule -->
<g id="edge2" class="edge">
<title>CustomModalModule&#45;&gt;TabsPageModule</title>
<path fill="none" stroke="#000000" d="M289.5,-122.1061C289.5,-122.1061 289.5,-140.991 289.5,-140.991"/>
<polygon fill="#000000" stroke="#000000" points="286.0001,-140.9909 289.5,-150.991 293.0001,-140.991 286.0001,-140.9909"/>
</g>
<!-- TabsPageRoutingModule -->
<g id="node4" class="node">
<title>TabsPageRoutingModule</title>
<polygon fill="#8dd3c7" stroke="#000000" points="202.0912,-122 199.0912,-126 178.0912,-126 175.0912,-122 42.9088,-122 42.9088,-86 202.0912,-86 202.0912,-122"/>
<text text-anchor="middle" x="122.5" y="-99.8" font-family="Times,serif" font-size="14.00" fill="#000000">TabsPageRoutingModule</text>
</g>
<!-- TabsPageRoutingModule&#45;&gt;TabsPageModule -->
<g id="edge3" class="edge">
<title>TabsPageRoutingModule&#45;&gt;TabsPageModule</title>
<path fill="none" stroke="#000000" d="M122.5,-122.1061C122.5,-141.3391 122.5,-169 122.5,-169 122.5,-169 222.4952,-169 222.4952,-169"/>
<polygon fill="#000000" stroke="#000000" points="222.4952,-172.5001 232.4952,-169 222.4951,-165.5001 222.4952,-172.5001"/>
</g>
</g>
</svg>
