<?xml version="1.0" encoding="UTF-8" standalone="no"?>
<!DOCTYPE svg PUBLIC "-//W3C//DTD SVG 1.1//EN"
 "http://www.w3.org/Graphics/SVG/1.1/DTD/svg11.dtd">
<!-- Generated by graphviz version 2.40.1 (20161225.0304)
 -->
<!-- Title: dependencies Pages: 1 -->
<svg width="2194pt" height="284pt"
 viewBox="0.00 0.00 2194.00 284.00" xmlns="http://www.w3.org/2000/svg" xmlns:xlink="http://www.w3.org/1999/xlink">
<g id="graph0" class="graph" transform="scale(1 1) rotate(0) translate(4 280)">
<title>dependencies</title>
<polygon fill="#ffffff" stroke="transparent" points="-4,4 -4,-280 2190,-280 2190,4 -4,4"/>
<text text-anchor="start" x="1072.0091" y="-42.4" font-family="sans-serif" font-weight="bold" font-size="14.00" fill="#000000">Legend</text>
<polygon fill="#ffffb3" stroke="transparent" points="859,-10 859,-30 879,-30 879,-10 859,-10"/>
<text text-anchor="start" x="882.629" y="-15.4" font-family="sans-serif" font-size="14.00" fill="#000000"> &#160;Declarations</text>
<polygon fill="#8dd3c7" stroke="transparent" points="972,-10 972,-30 992,-30 992,-10 972,-10"/>
<text text-anchor="start" x="995.7251" y="-15.4" font-family="sans-serif" font-size="14.00" fill="#000000"> &#160;Module</text>
<polygon fill="#80b1d3" stroke="transparent" points="1058,-10 1058,-30 1078,-30 1078,-10 1058,-10"/>
<text text-anchor="start" x="1081.7812" y="-15.4" font-family="sans-serif" font-size="14.00" fill="#000000"> &#160;Bootstrap</text>
<polygon fill="#fdb462" stroke="transparent" points="1155,-10 1155,-30 1175,-30 1175,-10 1155,-10"/>
<text text-anchor="start" x="1178.6732" y="-15.4" font-family="sans-serif" font-size="14.00" fill="#000000"> &#160;Providers</text>
<polygon fill="#fb8072" stroke="transparent" points="1251,-10 1251,-30 1271,-30 1271,-10 1251,-10"/>
<text text-anchor="start" x="1274.7258" y="-15.4" font-family="sans-serif" font-size="14.00" fill="#000000"> &#160;Exports</text>
<g id="clust1" class="cluster">
<title>cluster_AppModule</title>
<polygon fill="none" stroke="#000000" stroke-dasharray="1,5" points="8,-70 8,-268 1447,-268 1447,-70 8,-70"/>
</g>
<g id="clust2" class="cluster">
<title>cluster_AppModule_declarations</title>
<polygon fill="none" stroke="#000000" points="735,-78 735,-130 1439,-130 1439,-78 735,-78"/>
</g>
<g id="clust8" class="cluster">
<title>cluster_AppModule_imports</title>
<polygon fill="none" stroke="#000000" points="351,-78 351,-130 727,-130 727,-78 351,-78"/>
</g>
<g id="clust10" class="cluster">
<title>cluster_AppModule_bootstrap</title>
<polygon fill="none" stroke="#000000" points="671,-208 671,-260 795,-260 795,-208 671,-208"/>
</g>
<g id="clust11" class="cluster">
<title>cluster_AppModule_providers</title>
<polygon fill="none" stroke="#000000" points="16,-78 16,-130 343,-130 343,-78 16,-78"/>
</g>
<g id="clust36" class="cluster">
<title>cluster_Tab1PageModule</title>
<polygon fill="none" stroke="#000000" stroke-dasharray="1,5" points="1455,-70 1455,-195 1587,-195 1587,-70 1455,-70"/>
</g>
<g id="clust37" class="cluster">
<title>cluster_Tab1PageModule_declarations</title>
<polygon fill="none" stroke="#000000" points="1477,-78 1477,-130 1565,-130 1565,-78 1477,-78"/>
</g>
<g id="clust43" class="cluster">
<title>cluster_Tab2PageModule</title>
<polygon fill="none" stroke="#000000" stroke-dasharray="1,5" points="1595,-70 1595,-195 1727,-195 1727,-70 1595,-70"/>
</g>
<g id="clust44" class="cluster">
<title>cluster_Tab2PageModule_declarations</title>
<polygon fill="none" stroke="#000000" points="1617,-78 1617,-130 1705,-130 1705,-78 1617,-78"/>
</g>
<g id="clust50" class="cluster">
<title>cluster_TabsPageModule</title>
<polygon fill="none" stroke="#000000" stroke-dasharray="1,5" points="1735,-70 1735,-195 2178,-195 2178,-70 1735,-70"/>
</g>
<g id="clust51" class="cluster">
<title>cluster_TabsPageModule_declarations</title>
<polygon fill="none" stroke="#000000" points="2084,-78 2084,-130 2170,-130 2170,-78 2084,-78"/>
</g>
<g id="clust53" class="cluster">
<title>cluster_TabsPageModule_imports</title>
<polygon fill="none" stroke="#000000" points="1743,-78 1743,-130 2076,-130 2076,-78 1743,-78"/>
</g>
<!-- AddAlertComponent -->
<g id="node1" class="node">
<title>AddAlertComponent</title>
<polygon fill="#ffffb3" stroke="#000000" points="1431.2022,-122 1296.7978,-122 1296.7978,-86 1431.2022,-86 1431.2022,-122"/>
<text text-anchor="middle" x="1364" y="-99.8" font-family="Times,serif" font-size="14.00" fill="#000000">AddAlertComponent</text>
</g>
<!-- AppModule -->
<g id="node6" class="node">
<title>AppModule</title>
<polygon fill="#8dd3c7" stroke="#000000" points="774.6571,-187 771.6571,-191 750.6571,-191 747.6571,-187 691.3429,-187 691.3429,-151 774.6571,-151 774.6571,-187"/>
<text text-anchor="middle" x="733" y="-164.8" font-family="Times,serif" font-size="14.00" fill="#000000">AppModule</text>
</g>
<!-- AddAlertComponent&#45;&gt;AppModule -->
<g id="edge1" class="edge">
<title>AddAlertComponent&#45;&gt;AppModule</title>
<path fill="none" stroke="#000000" d="M1364,-122.0109C1364,-144.4852 1364,-180 1364,-180 1364,-180 784.8903,-180 784.8903,-180"/>
<polygon fill="#000000" stroke="#000000" points="784.8904,-176.5001 774.8903,-180 784.8903,-183.5001 784.8904,-176.5001"/>
</g>
<!-- AppComponent -->
<g id="node2" class="node">
<title>AppComponent</title>
<polygon fill="#ffffb3" stroke="#000000" points="1278.9399,-122 1173.0601,-122 1173.0601,-86 1278.9399,-86 1278.9399,-122"/>
<text text-anchor="middle" x="1226" y="-99.8" font-family="Times,serif" font-size="14.00" fill="#000000">AppComponent</text>
</g>
<!-- AppComponent&#45;&gt;AppModule -->
<g id="edge2" class="edge">
<title>AppComponent&#45;&gt;AppModule</title>
<path fill="none" stroke="#000000" d="M1226,-122.1289C1226,-142.5724 1226,-173 1226,-173 1226,-173 785.0329,-173 785.0329,-173"/>
<polygon fill="#000000" stroke="#000000" points="785.0329,-169.5001 775.0329,-173 785.0329,-176.5001 785.0329,-169.5001"/>
</g>
<!-- HelpComponent -->
<g id="node3" class="node">
<title>HelpComponent</title>
<polygon fill="#ffffb3" stroke="#000000" points="1155.0452,-122 1046.9548,-122 1046.9548,-86 1155.0452,-86 1155.0452,-122"/>
<text text-anchor="middle" x="1101" y="-99.8" font-family="Times,serif" font-size="14.00" fill="#000000">HelpComponent</text>
</g>
<!-- HelpComponent&#45;&gt;AppModule -->
<g id="edge3" class="edge">
<title>HelpComponent&#45;&gt;AppModule</title>
<path fill="none" stroke="#000000" d="M1101,-122.2667C1101,-140.5552 1101,-166 1101,-166 1101,-166 784.856,-166 784.856,-166"/>
<polygon fill="#000000" stroke="#000000" points="784.856,-162.5001 774.856,-166 784.856,-169.5001 784.856,-162.5001"/>
</g>
<!-- ScrollHideDirective -->
<g id="node4" class="node">
<title>ScrollHideDirective</title>
<polygon fill="#ffffb3" stroke="#000000" points="1028.2339,-122 899.7661,-122 899.7661,-86 1028.2339,-86 1028.2339,-122"/>
<text text-anchor="middle" x="964" y="-99.8" font-family="Times,serif" font-size="14.00" fill="#000000">ScrollHideDirective</text>
</g>
<!-- ScrollHideDirective&#45;&gt;AppModule -->
<g id="edge4" class="edge">
<title>ScrollHideDirective&#45;&gt;AppModule</title>
<path fill="none" stroke="#000000" d="M964,-122.0091C964,-138.0494 964,-159 964,-159 964,-159 784.8324,-159 784.8324,-159"/>
<polygon fill="#000000" stroke="#000000" points="784.8324,-155.5001 774.8324,-159 784.8323,-162.5001 784.8324,-155.5001"/>
</g>
<!-- ViewCardComponent -->
<g id="node5" class="node">
<title>ViewCardComponent</title>
<polygon fill="#ffffb3" stroke="#000000" points="881.3627,-122 742.6373,-122 742.6373,-86 881.3627,-86 881.3627,-122"/>
<text text-anchor="middle" x="812" y="-99.8" font-family="Times,serif" font-size="14.00" fill="#000000">ViewCardComponent</text>
</g>
<!-- ViewCardComponent&#45;&gt;AppModule -->
<g id="edge5" class="edge">
<title>ViewCardComponent&#45;&gt;AppModule</title>
<path fill="none" stroke="#000000" d="M758.6985,-122.1061C758.6985,-122.1061 758.6985,-140.991 758.6985,-140.991"/>
<polygon fill="#000000" stroke="#000000" points="755.1985,-140.9909 758.6985,-150.991 762.1985,-140.991 755.1985,-140.9909"/>
</g>
<!-- AppComponent  -->
<g id="node10" class="node">
<title>AppComponent </title>
<polygon fill="#80b1d3" stroke="#000000" points="787.439,-252 678.561,-252 678.561,-216 787.439,-216 787.439,-252"/>
<text text-anchor="middle" x="733" y="-229.8" font-family="Times,serif" font-size="14.00" fill="#000000">AppComponent </text>
</g>
<!-- AppModule&#45;&gt;AppComponent  -->
<g id="edge9" class="edge">
<title>AppModule&#45;&gt;AppComponent </title>
<path fill="none" stroke="#000000" stroke-dasharray="1,5" d="M733,-187.1061C733,-187.1061 733,-205.991 733,-205.991"/>
<polygon fill="#000000" stroke="#000000" points="729.5001,-205.9909 733,-215.991 736.5001,-205.991 729.5001,-205.9909"/>
</g>
<!-- AppRoutingModule -->
<g id="node7" class="node">
<title>AppRoutingModule</title>
<polygon fill="#8dd3c7" stroke="#000000" points="719.2744,-122 716.2744,-126 695.2744,-126 692.2744,-122 590.7256,-122 590.7256,-86 719.2744,-86 719.2744,-122"/>
<text text-anchor="middle" x="655" y="-99.8" font-family="Times,serif" font-size="14.00" fill="#000000">AppRoutingModule</text>
</g>
<!-- AppRoutingModule&#45;&gt;AppModule -->
<g id="edge6" class="edge">
<title>AppRoutingModule&#45;&gt;AppModule</title>
<path fill="none" stroke="#000000" d="M705.2795,-122.1061C705.2795,-122.1061 705.2795,-140.991 705.2795,-140.991"/>
<polygon fill="#000000" stroke="#000000" points="701.7795,-140.9909 705.2795,-150.991 708.7795,-140.991 701.7795,-140.9909"/>
</g>
<!-- CustomLoading -->
<g id="node8" class="node">
<title>CustomLoading</title>
<polygon fill="#8dd3c7" stroke="#000000" points="573.2204,-122 570.2204,-126 549.2204,-126 546.2204,-122 466.7796,-122 466.7796,-86 573.2204,-86 573.2204,-122"/>
<text text-anchor="middle" x="520" y="-99.8" font-family="Times,serif" font-size="14.00" fill="#000000">CustomLoading</text>
</g>
<!-- CustomLoading&#45;&gt;AppModule -->
<g id="edge7" class="edge">
<title>CustomLoading&#45;&gt;AppModule</title>
<path fill="none" stroke="#000000" d="M520,-122.0091C520,-138.0494 520,-159 520,-159 520,-159 681.1722,-159 681.1722,-159"/>
<polygon fill="#000000" stroke="#000000" points="681.1722,-162.5001 691.1722,-159 681.1722,-155.5001 681.1722,-162.5001"/>
</g>
<!-- CustomToast -->
<g id="node9" class="node">
<title>CustomToast</title>
<polygon fill="#8dd3c7" stroke="#000000" points="449.1654,-122 446.1654,-126 425.1654,-126 422.1654,-122 358.8346,-122 358.8346,-86 449.1654,-86 449.1654,-122"/>
<text text-anchor="middle" x="404" y="-99.8" font-family="Times,serif" font-size="14.00" fill="#000000">CustomToast</text>
</g>
<!-- CustomToast&#45;&gt;AppModule -->
<g id="edge8" class="edge">
<title>CustomToast&#45;&gt;AppModule</title>
<path fill="none" stroke="#000000" d="M404,-122.2667C404,-140.5552 404,-166 404,-166 404,-166 681.3319,-166 681.3319,-166"/>
<polygon fill="#000000" stroke="#000000" points="681.332,-169.5001 691.3319,-166 681.3319,-162.5001 681.332,-169.5001"/>
</g>
<!-- NetworkService -->
<g id="node11" class="node">
<title>NetworkService</title>
<ellipse fill="#fdb462" stroke="#000000" cx="261" cy="-104" rx="73.5541" ry="18"/>
<text text-anchor="middle" x="261" y="-99.8" font-family="Times,serif" font-size="14.00" fill="#000000">NetworkService</text>
</g>
<!-- NetworkService&#45;&gt;AppModule -->
<g id="edge10" class="edge">
<title>NetworkService&#45;&gt;AppModule</title>
<path fill="none" stroke="#000000" d="M261,-122.1289C261,-142.5724 261,-173 261,-173 261,-173 681.1131,-173 681.1131,-173"/>
<polygon fill="#000000" stroke="#000000" points="681.1132,-176.5001 691.1131,-173 681.1131,-169.5001 681.1132,-176.5001"/>
</g>
<!-- WeatherService -->
<g id="node12" class="node">
<title>WeatherService</title>
<ellipse fill="#fdb462" stroke="#000000" cx="97" cy="-104" rx="72.8889" ry="18"/>
<text text-anchor="middle" x="97" y="-99.8" font-family="Times,serif" font-size="14.00" fill="#000000">WeatherService</text>
</g>
<!-- WeatherService&#45;&gt;AppModule -->
<g id="edge11" class="edge">
<title>WeatherService&#45;&gt;AppModule</title>
<path fill="none" stroke="#000000" d="M97,-122.0109C97,-144.4852 97,-180 97,-180 97,-180 681.2703,-180 681.2703,-180"/>
<polygon fill="#000000" stroke="#000000" points="681.2703,-183.5001 691.2703,-180 681.2702,-176.5001 681.2703,-183.5001"/>
</g>
<!-- Tab1Page -->
<g id="node13" class="node">
<title>Tab1Page</title>
<polygon fill="#ffffb3" stroke="#000000" points="1556.979,-122 1485.021,-122 1485.021,-86 1556.979,-86 1556.979,-122"/>
<text text-anchor="middle" x="1521" y="-99.8" font-family="Times,serif" font-size="14.00" fill="#000000">Tab1Page</text>
</g>
<!-- Tab1PageModule -->
<g id="node14" class="node">
<title>Tab1PageModule</title>
<polygon fill="#8dd3c7" stroke="#000000" points="1578.5298,-187 1575.5298,-191 1554.5298,-191 1551.5298,-187 1463.4702,-187 1463.4702,-151 1578.5298,-151 1578.5298,-187"/>
<text text-anchor="middle" x="1521" y="-164.8" font-family="Times,serif" font-size="14.00" fill="#000000">Tab1PageModule</text>
</g>
<!-- Tab1Page&#45;&gt;Tab1PageModule -->
<g id="edge12" class="edge">
<title>Tab1Page&#45;&gt;Tab1PageModule</title>
<path fill="none" stroke="#000000" d="M1521,-122.1061C1521,-122.1061 1521,-140.991 1521,-140.991"/>
<polygon fill="#000000" stroke="#000000" points="1517.5001,-140.9909 1521,-150.991 1524.5001,-140.991 1517.5001,-140.9909"/>
</g>
<!-- Tab2Page -->
<g id="node15" class="node">
<title>Tab2Page</title>
<polygon fill="#ffffb3" stroke="#000000" points="1696.979,-122 1625.021,-122 1625.021,-86 1696.979,-86 1696.979,-122"/>
<text text-anchor="middle" x="1661" y="-99.8" font-family="Times,serif" font-size="14.00" fill="#000000">Tab2Page</text>
</g>
<!-- Tab2PageModule -->
<g id="node16" class="node">
<title>Tab2PageModule</title>
<polygon fill="#8dd3c7" stroke="#000000" points="1718.5298,-187 1715.5298,-191 1694.5298,-191 1691.5298,-187 1603.4702,-187 1603.4702,-151 1718.5298,-151 1718.5298,-187"/>
<text text-anchor="middle" x="1661" y="-164.8" font-family="Times,serif" font-size="14.00" fill="#000000">Tab2PageModule</text>
</g>
<!-- Tab2Page&#45;&gt;Tab2PageModule -->
<g id="edge13" class="edge">
<title>Tab2Page&#45;&gt;Tab2PageModule</title>
<path fill="none" stroke="#000000" d="M1661,-122.1061C1661,-122.1061 1661,-140.991 1661,-140.991"/>
<polygon fill="#000000" stroke="#000000" points="1657.5001,-140.9909 1661,-150.991 1664.5001,-140.991 1657.5001,-140.9909"/>
</g>
<!-- TabsPage -->
<g id="node17" class="node">
<title>TabsPage</title>
<polygon fill="#ffffb3" stroke="#000000" points="2162.4249,-122 2091.5751,-122 2091.5751,-86 2162.4249,-86 2162.4249,-122"/>
<text text-anchor="middle" x="2127" y="-99.8" font-family="Times,serif" font-size="14.00" fill="#000000">TabsPage</text>
</g>
<!-- TabsPageModule -->
<g id="node18" class="node">
<title>TabsPageModule</title>
<polygon fill="#8dd3c7" stroke="#000000" points="2054.9734,-187 2051.9734,-191 2030.9734,-191 2027.9734,-187 1941.0266,-187 1941.0266,-151 2054.9734,-151 2054.9734,-187"/>
<text text-anchor="middle" x="1998" y="-164.8" font-family="Times,serif" font-size="14.00" fill="#000000">TabsPageModule</text>
</g>
<!-- TabsPage&#45;&gt;TabsPageModule -->
<g id="edge14" class="edge">
<title>TabsPage&#45;&gt;TabsPageModule</title>
<path fill="none" stroke="#000000" d="M2127,-122.1061C2127,-141.3391 2127,-169 2127,-169 2127,-169 2065.3325,-169 2065.3325,-169"/>
<polygon fill="#000000" stroke="#000000" points="2065.3326,-165.5001 2055.3325,-169 2065.3325,-172.5001 2065.3326,-165.5001"/>
</g>
<!-- CustomModalModule -->
<g id="node19" class="node">
<title>CustomModalModule</title>
<polygon fill="#8dd3c7" stroke="#000000" points="2067.6624,-122 2064.6624,-126 2043.6624,-126 2040.6624,-122 1928.3376,-122 1928.3376,-86 2067.6624,-86 2067.6624,-122"/>
<text text-anchor="middle" x="1998" y="-99.8" font-family="Times,serif" font-size="14.00" fill="#000000">CustomModalModule</text>
</g>
<!-- CustomModalModule&#45;&gt;TabsPageModule -->
<g id="edge15" class="edge">
<title>CustomModalModule&#45;&gt;TabsPageModule</title>
<path fill="none" stroke="#000000" d="M1998,-122.1061C1998,-122.1061 1998,-140.991 1998,-140.991"/>
<polygon fill="#000000" stroke="#000000" points="1994.5001,-140.9909 1998,-150.991 2001.5001,-140.991 1994.5001,-140.9909"/>
</g>
<!-- TabsPageRoutingModule -->
<g id="node20" class="node">
<title>TabsPageRoutingModule</title>
<polygon fill="#8dd3c7" stroke="#000000" points="1910.5912,-122 1907.5912,-126 1886.5912,-126 1883.5912,-122 1751.4088,-122 1751.4088,-86 1910.5912,-86 1910.5912,-122"/>
<text text-anchor="middle" x="1831" y="-99.8" font-family="Times,serif" font-size="14.00" fill="#000000">TabsPageRoutingModule</text>
</g>
<!-- TabsPageRoutingModule&#45;&gt;TabsPageModule -->
<g id="edge16" class="edge">
<title>TabsPageRoutingModule&#45;&gt;TabsPageModule</title>
<path fill="none" stroke="#000000" d="M1831,-122.1061C1831,-141.3391 1831,-169 1831,-169 1831,-169 1930.9952,-169 1930.9952,-169"/>
<polygon fill="#000000" stroke="#000000" points="1930.9952,-172.5001 1940.9952,-169 1930.9951,-165.5001 1930.9952,-172.5001"/>
</g>
</g>
</svg>
